<svg width="12" height="16" viewBox="0 0 12 16" fill="none" xmlns="http://www.w3.org/2000/svg">
<path fill-rule="evenodd" clip-rule="evenodd" d="M9.85717 2.6667H11.1428C11.3159 2.6667 11.4728 2.5582 11.5389 2.392C11.6057 2.2267 11.5689 2.0347 11.4463 1.90755L10.1605 0.57422C10.038 0.44711 9.85456 0.41067 9.69343 0.47822C9.53317 0.54667 9.42854 0.70933 9.42854 0.88889V2.2222C9.42854 2.4676 9.62053 2.6667 9.85717 2.6667ZM5.14288 8H9.42854V6.2222H5.14288V8ZM10.2857 5.7778C10.2857 5.5324 10.0937 5.3333 9.85717 5.3333H2.1429C1.90626 5.3333 1.71427 5.5324 1.71427 5.7778V13.7778C1.71427 14.0231 1.90626 14.2222 2.1429 14.2222H9.85717C10.0937 14.2222 10.2857 14.0231 10.2857 13.7778V5.7778ZM1.71427 2.6667C1.71427 3.1582 2.09825 3.5556 2.57143 3.5556H6.00003C6.47311 3.5556 6.85709 3.1582 6.85709 2.6667C6.85709 2.1751 6.47311 1.77778 6.00003 1.77778H2.57143C2.09825 1.77778 1.71427 2.1751 1.71427 2.6667ZM12 4V14.3929C12 15.2791 11.3537 16 10.5583 16H1.44167C0.64633 16 0 15.2791 0 14.3929V1.60711C0 0.72089 0.64633 0 1.44167 0H8.14287C8.3794 0 8.57139 0.19911 8.57139 0.44444V2.2222C8.57139 2.9573 9.14823 3.5556 9.85717 3.5556H11.5714C11.808 3.5556 12 3.7547 12 4ZM2.57143 8H4.28573V6.2222H2.57143V8ZM5.14288 13.3333H9.42854V8.8889H5.14288V13.3333ZM2.57143 13.3333H4.28573V8.8889H2.57143V13.3333Z" fill="black"/>
</svg>
