<svg width="16" height="17" viewBox="0 0 16 17" fill="none" xmlns="http://www.w3.org/2000/svg">
<path fill-rule="evenodd" clip-rule="evenodd" d="M8 0.5C3.5817 0.5 0 4.0817 0 8.5C0 12.9183 3.5817 16.5 8 16.5C12.4183 16.5 16 12.9183 16 8.5C15.9951 4.0838 12.4162 0.5049 8 0.5ZM8 14.7222C4.5636 14.7222 1.77778 11.9364 1.77778 8.5C1.77778 5.0636 4.5636 2.27778 8 2.27778C11.4364 2.27778 14.2222 5.0636 14.2222 8.5C14.2183 11.9348 11.4348 14.7183 8 14.7222ZM10.6486 10.5138C10.73 10.203 10.6373 9.8725 10.4062 9.6493L8.8889 8.132V4.9445C8.8889 4.4535 8.4909 4.0556 8 4.0556C7.5091 4.0556 7.1111 4.4535 7.1111 4.9445V8.5C7.1112 8.7357 7.2048 8.9618 7.3716 9.1285L9.1493 10.9062C9.3725 11.1373 9.703 11.23 10.0138 11.1486C10.3246 11.0673 10.5673 10.8246 10.6486 10.5138Z" fill="black"/>
</svg>
