<svg width="16" height="17" viewBox="0 0 16 17" fill="none" xmlns="http://www.w3.org/2000/svg">
<path fill-rule="evenodd" clip-rule="evenodd" d="M4.15558 4.66744C4.11358 4.45934 4.22498 4.25064 4.42128 4.16964L10.6258 1.6008C11.3047 1.32088 12.0821 1.64392 12.3627 2.32257L13.224 4.41144C13.2808 4.54844 13.2653 4.70474 13.1828 4.82804C13.1003 4.95124 12.9616 5.02514 12.8133 5.02484H4.59108C4.37928 5.02464 4.19708 4.87514 4.15558 4.66744ZM12.1111 9.46924H14.7778C15.0233 9.46924 15.2222 9.66824 15.2222 9.91364V11.6914C15.2222 11.9369 15.0233 12.1359 14.7778 12.1359H12.1111C11.8657 12.1359 11.6667 11.9369 11.6667 11.6914V9.91364C11.6667 9.66824 11.8657 9.46924 12.1111 9.46924ZM12.5556 10.8025C12.5556 11.048 12.7546 11.247 13 11.247C13.2455 11.247 13.4445 11.048 13.4445 10.8025C13.4445 10.5571 13.2455 10.3581 13 10.3581C12.7546 10.3581 12.5556 10.5571 12.5556 10.8025ZM15.2222 7.69144V7.24704C15.2213 6.51104 14.6249 5.91464 13.8889 5.91364H2.33328C1.59736 5.91464 1.00098 6.51104 1 7.24704V14.3581C1.00098 15.0941 1.59736 15.6904 2.33328 15.6914H13.8889C14.6249 15.6904 15.2213 15.0941 15.2222 14.3581V13.9136C15.2222 13.6682 15.0233 13.4692 14.7778 13.4692H11.6667C10.9307 13.4682 10.3343 12.8718 10.3333 12.1359V9.46924C10.3343 8.73324 10.9307 8.13684 11.6667 8.13594H14.7778C15.0233 8.13594 15.2222 7.93694 15.2222 7.69144Z" fill="black"/>
</svg>
