<svg width="258" height="86" viewBox="0 0 258 86" fill="none" xmlns="http://www.w3.org/2000/svg">
<path d="M2.624 29.208V7.288H5.664L5.952 9.08H6.048C6.73067 8.44 7.50933 7.91733 8.384 7.512C9.28 7.10667 10.176 6.904 11.072 6.904C12.4587 6.904 13.6213 7.23467 14.56 7.896C15.4987 8.55733 16.224 9.48533 16.736 10.68C17.248 11.8747 17.504 13.2827 17.504 14.904C17.504 16.696 17.1733 18.2213 16.512 19.48C15.8507 20.7387 14.9867 21.7093 13.92 22.392C12.8747 23.0533 11.744 23.384 10.528 23.384C9.824 23.384 9.088 23.224 8.32 22.904C7.57333 22.584 6.88 22.1253 6.24 21.528H6.144L6.336 24.28V29.208H2.624ZM9.76 20.344C10.5067 20.344 11.1787 20.1413 11.776 19.736C12.3733 19.3307 12.8427 18.7333 13.184 17.944C13.5253 17.1333 13.696 16.1307 13.696 14.936C13.696 13.8907 13.568 12.9947 13.312 12.248C13.056 11.5013 12.6613 10.936 12.128 10.552C11.616 10.1467 10.9227 9.944 10.048 9.944C9.45067 9.944 8.84267 10.0933 8.224 10.392C7.60533 10.6907 6.976 11.1707 6.336 11.832V18.904C6.912 19.416 7.50933 19.7893 8.128 20.024C8.74667 20.2373 9.29067 20.344 9.76 20.344ZM28.7875 23.384C27.4008 23.384 26.1102 23.064 24.9155 22.424C23.7208 21.7627 22.7502 20.824 22.0035 19.608C21.2568 18.3707 20.8835 16.888 20.8835 15.16C20.8835 13.4107 21.2568 11.928 22.0035 10.712C22.7502 9.47467 23.7208 8.536 24.9155 7.896C26.1102 7.23467 27.4008 6.904 28.7875 6.904C30.1742 6.904 31.4648 7.23467 32.6595 7.896C33.8542 8.536 34.8248 9.47467 35.5715 10.712C36.3182 11.928 36.6915 13.4107 36.6915 15.16C36.6915 16.888 36.3182 18.3707 35.5715 19.608C34.8248 20.824 33.8542 21.7627 32.6595 22.424C31.4648 23.064 30.1742 23.384 28.7875 23.384ZM28.7875 20.376C29.6408 20.376 30.3768 20.1627 30.9955 19.736C31.6142 19.3093 32.0835 18.7013 32.4035 17.912C32.7235 17.1227 32.8835 16.2053 32.8835 15.16C32.8835 14.1147 32.7235 13.1973 32.4035 12.408C32.0835 11.6187 31.6142 11.0107 30.9955 10.584C30.3768 10.136 29.6408 9.912 28.7875 9.912C27.9342 9.912 27.1982 10.136 26.5795 10.584C25.9822 11.0107 25.5128 11.6187 25.1715 12.408C24.8515 13.1973 24.6915 14.1147 24.6915 15.16C24.6915 16.2053 24.8515 17.1227 25.1715 17.912C25.5128 18.7013 25.9822 19.3093 26.5795 19.736C27.1982 20.1627 27.9342 20.376 28.7875 20.376ZM41.543 23L38.567 7.288H42.183L43.591 15.448C43.719 16.216 43.8257 16.9733 43.911 17.72C44.0177 18.4453 44.1137 19.192 44.199 19.96H44.295C44.4017 19.192 44.519 18.4347 44.647 17.688C44.7963 16.9413 44.9563 16.1947 45.127 15.448L46.567 8.824H49.607L51.015 15.448C51.1857 16.216 51.3457 16.9733 51.495 17.72C51.6657 18.4453 51.8043 19.192 51.911 19.96H52.039C52.1457 19.192 52.231 18.4453 52.295 17.72C52.3803 16.9733 52.487 16.216 52.615 15.448L53.959 7.288H57.383L54.503 23H50.023L48.711 16.728C48.6043 16.1093 48.487 15.416 48.359 14.648C48.2523 13.88 48.1457 13.0267 48.039 12.088H47.911C47.8043 12.8987 47.6977 13.6773 47.591 14.424C47.5057 15.1707 47.399 15.9387 47.271 16.728L45.991 23H41.543ZM68.1225 23.384C66.5225 23.384 65.0718 23.064 63.7705 22.424C62.4692 21.7627 61.4345 20.824 60.6665 19.608C59.8985 18.3707 59.5145 16.8773 59.5145 15.128C59.5145 13.4213 59.8985 11.96 60.6665 10.744C61.4345 9.50667 62.4372 8.55733 63.6745 7.896C64.9118 7.23467 66.2345 6.904 67.6425 6.904C69.1998 6.904 70.5118 7.224 71.5785 7.864C72.6665 8.504 73.4878 9.38933 74.0425 10.52C74.6185 11.6293 74.9065 12.9093 74.9065 14.36C74.9065 14.7227 74.8852 15.0747 74.8425 15.416C74.8212 15.736 74.7892 16.0027 74.7465 16.216H62.1705V13.592H72.3785L71.6745 14.424C71.6745 12.8667 71.3225 11.704 70.6185 10.936C69.9358 10.1467 68.9758 9.752 67.7385 9.752C66.8638 9.752 66.0745 9.95467 65.3705 10.36C64.6878 10.7653 64.1438 11.3733 63.7385 12.184C63.3332 12.9733 63.1305 13.9547 63.1305 15.128C63.1305 16.344 63.3545 17.3467 63.8025 18.136C64.2718 18.9253 64.9118 19.5227 65.7225 19.928C66.5545 20.3333 67.5145 20.536 68.6025 20.536C69.4345 20.536 70.2025 20.4187 70.9065 20.184C71.6105 19.9493 72.3145 19.6293 73.0185 19.224L74.2665 21.528C73.4345 22.0613 72.4958 22.5093 71.4505 22.872C70.4052 23.2133 69.2958 23.384 68.1225 23.384ZM80.91 23V7.288H83.95L84.27 10.84H84.366C85.1553 9.56 86.126 8.58933 87.278 7.928C88.4513 7.24533 89.71 6.904 91.054 6.904C91.694 6.904 92.2487 6.95733 92.718 7.064C93.1873 7.17067 93.646 7.33067 94.094 7.544L93.326 10.648C92.814 10.4773 92.3553 10.36 91.95 10.296C91.566 10.2107 91.0753 10.168 90.478 10.168C89.4113 10.168 88.366 10.4773 87.342 11.096C86.3393 11.7147 85.4327 12.792 84.622 14.328V23H80.91ZM106.498 23.384C104.898 23.384 103.447 23.064 102.146 22.424C100.844 21.7627 99.8095 20.824 99.0415 19.608C98.2735 18.3707 97.8895 16.8773 97.8895 15.128C97.8895 13.4213 98.2735 11.96 99.0415 10.744C99.8095 9.50667 100.812 8.55733 102.05 7.896C103.287 7.23467 104.61 6.904 106.018 6.904C107.575 6.904 108.887 7.224 109.954 7.864C111.042 8.504 111.863 9.38933 112.418 10.52C112.994 11.6293 113.282 12.9093 113.282 14.36C113.282 14.7227 113.26 15.0747 113.218 15.416C113.196 15.736 113.164 16.0027 113.122 16.216H100.546V13.592H110.754L110.05 14.424C110.05 12.8667 109.698 11.704 108.994 10.936C108.311 10.1467 107.351 9.752 106.114 9.752C105.239 9.752 104.45 9.95467 103.746 10.36C103.063 10.7653 102.519 11.3733 102.114 12.184C101.708 12.9733 101.506 13.9547 101.506 15.128C101.506 16.344 101.73 17.3467 102.178 18.136C102.647 18.9253 103.287 19.5227 104.098 19.928C104.93 20.3333 105.89 20.536 106.978 20.536C107.81 20.536 108.578 20.4187 109.282 20.184C109.986 19.9493 110.69 19.6293 111.394 19.224L112.642 21.528C111.81 22.0613 110.871 22.5093 109.826 22.872C108.78 23.2133 107.671 23.384 106.498 23.384ZM123.541 23.384C121.536 23.384 119.914 22.6587 118.677 21.208C117.44 19.7573 116.821 17.7413 116.821 15.16C116.821 13.4533 117.152 11.9813 117.813 10.744C118.474 9.50667 119.338 8.55733 120.405 7.896C121.472 7.23467 122.592 6.904 123.765 6.904C124.661 6.904 125.45 7.064 126.133 7.384C126.837 7.704 127.488 8.16267 128.085 8.76H128.181L127.989 6.104V0.407999H131.701V23H128.661L128.373 21.176H128.277C127.68 21.7733 126.965 22.296 126.133 22.744C125.301 23.1707 124.437 23.384 123.541 23.384ZM124.437 20.344C125.077 20.344 125.696 20.1947 126.293 19.896C126.89 19.576 127.456 19.096 127.989 18.456V11.384C127.434 10.8507 126.88 10.4773 126.325 10.264C125.77 10.0507 125.205 9.944 124.629 9.944C123.904 9.944 123.232 10.1467 122.613 10.552C122.016 10.9573 121.536 11.544 121.173 12.312C120.81 13.08 120.629 14.0187 120.629 15.128C120.629 16.8133 120.96 18.104 121.621 19C122.304 19.896 123.242 20.344 124.437 20.344ZM164.028 23.384C163.281 23.384 162.503 23.2027 161.692 22.84C160.903 22.4773 160.156 21.9547 159.452 21.272H159.356L159.036 23H156.124V0.407999H159.836V6.232L159.676 8.984H159.772C160.433 8.344 161.18 7.84267 162.012 7.48C162.865 7.096 163.719 6.904 164.572 6.904C165.937 6.904 167.089 7.23467 168.028 7.896C168.988 8.55733 169.724 9.48533 170.236 10.68C170.748 11.8533 171.004 13.2507 171.004 14.872C171.004 16.664 170.673 18.2 170.012 19.48C169.351 20.7387 168.487 21.7093 167.42 22.392C166.375 23.0533 165.244 23.384 164.028 23.384ZM163.292 20.344C164.017 20.344 164.679 20.1413 165.276 19.736C165.873 19.3307 166.343 18.7333 166.684 17.944C167.025 17.1333 167.196 16.1307 167.196 14.936C167.196 13.8907 167.068 12.9947 166.812 12.248C166.556 11.5013 166.161 10.936 165.628 10.552C165.116 10.1467 164.423 9.944 163.548 9.944C162.951 9.944 162.343 10.0933 161.724 10.392C161.105 10.6907 160.476 11.1707 159.836 11.832V18.904C160.412 19.416 161.009 19.7893 161.628 20.024C162.247 20.2373 162.801 20.344 163.292 20.344ZM177.072 29.464C176.666 29.464 176.261 29.432 175.856 29.368C175.472 29.304 175.13 29.2293 174.832 29.144L175.536 26.264C175.749 26.328 175.962 26.3813 176.176 26.424C176.41 26.4667 176.634 26.488 176.848 26.488C177.85 26.488 178.65 26.232 179.248 25.72C179.845 25.208 180.304 24.568 180.624 23.8L181.008 22.808L173.968 7.288H177.648L180.88 15C181.157 15.704 181.445 16.4507 181.744 17.24C182.042 18.0293 182.33 18.8187 182.608 19.608H182.736C182.992 18.8613 183.248 18.0933 183.504 17.304C183.781 16.4933 184.048 15.7253 184.304 15L187.152 7.288H190.64L184.08 23.704C183.653 24.8773 183.13 25.8907 182.512 26.744C181.893 27.6187 181.146 28.2907 180.272 28.76C179.397 29.2293 178.33 29.464 177.072 29.464Z" fill="#565A6A"/>
<path fill-rule="evenodd" clip-rule="evenodd" d="M71.0671 36.978V73.9605H64.3062V36.978H71.0671ZM6.7609 85.1171V74.5286L6.34802 70.8097H6.7609C7.44903 71.946 8.48983 72.8929 9.8833 73.6505C11.2768 74.408 12.8681 74.7868 14.6572 74.7868C17.0313 74.7868 19.1903 74.1928 21.1343 73.0048C23.0782 71.8169 24.6007 70.164 25.7017 68.0463C26.8028 65.9286 27.3533 63.5096 27.3533 60.7893C27.3533 58.1034 26.8028 55.693 25.7017 53.558C24.6007 51.4231 23.0782 49.7617 21.1343 48.5737C19.1903 47.3857 17.0313 46.7917 14.6572 46.7917C12.8681 46.7917 11.2854 47.1791 9.9091 47.9538C8.53284 48.7286 7.48344 49.6842 6.7609 50.8205H6.34802V47.6181H0V85.1171H6.7609ZM13.4704 68.5374C12.2317 68.5374 11.0619 68.2102 9.96088 67.556C8.85987 66.9017 7.9825 65.9892 7.32878 64.8185C6.67505 63.6477 6.34819 62.3048 6.34819 60.7896C6.34819 59.2745 6.67505 57.9316 7.32878 56.7608C7.9825 55.59 8.85987 54.6861 9.96088 54.0491C11.0619 53.4121 12.2317 53.0936 13.4704 53.0936C14.7434 53.0936 15.9304 53.4121 17.0314 54.0491C18.1325 54.6861 19.0098 55.59 19.6635 56.7608C20.3173 57.9316 20.6441 59.2745 20.6441 60.7896C20.6441 62.3048 20.3173 63.6477 19.6635 64.8185C19.0098 65.9892 18.1325 66.9017 17.0314 67.556C15.9304 68.2102 14.7434 68.5374 13.4704 68.5374ZM52.3839 72.9532C50.2507 74.1756 47.8423 74.7868 45.1586 74.7868C42.4404 74.7868 40.0148 74.1756 37.8816 72.9532C35.7483 71.7308 34.0882 70.0607 32.9012 67.943C31.7142 65.8253 31.1207 63.4407 31.1207 60.7893C31.1207 58.1722 31.7142 55.7963 32.9012 53.6613C34.0882 51.5264 35.7483 49.8477 37.8816 48.6253C40.0148 47.4029 42.4404 46.7917 45.1586 46.7917C47.8423 46.7917 50.2507 47.4029 52.3839 48.6253C54.5172 49.8477 56.1773 51.5264 57.3643 53.6613C58.5513 55.7963 59.1448 58.1722 59.1448 60.7893C59.1448 63.4407 58.5513 65.8253 57.3643 67.943C56.1773 70.0607 54.5172 71.7308 52.3839 72.9532ZM45.1586 68.5374C43.8511 68.5374 42.6469 68.2275 41.5459 67.6076C40.4449 66.9878 39.5589 66.0839 38.888 64.8959C38.217 63.708 37.8816 62.3392 37.8816 60.7896C37.8816 59.2401 38.217 57.8799 38.888 56.7092C39.5589 55.5384 40.4449 54.6431 41.5459 54.0233C42.6469 53.4035 43.8511 53.0936 45.1586 53.0936C46.466 53.0936 47.6703 53.4035 48.7713 54.0233C49.8723 54.6431 50.7497 55.5384 51.4034 56.7092C52.0571 57.8799 52.384 59.2401 52.384 60.7896C52.384 62.3736 52.0571 63.751 51.4034 64.9218C50.7497 66.0925 49.8723 66.9878 48.7713 67.6076C47.6703 68.2275 46.466 68.5374 45.1586 68.5374ZM87.5833 85.1174L103.84 47.6183H96.3054L89.7509 63.9919H89.3381L82.5256 47.6183H74.8357L85.9318 72.721L80.3063 85.1174H87.5833ZM126.806 84.2649C124.776 85.384 122.401 85.9435 119.683 85.9435C116.346 85.9435 113.576 85.1946 111.374 83.6967C109.172 82.1988 107.693 80.3996 106.936 78.2991L113.284 75.7165C113.834 77.025 114.677 78.0581 115.813 78.8156C116.948 79.5732 118.238 79.952 119.683 79.952C121.817 79.952 123.511 79.2977 124.767 77.9892C126.023 76.6807 126.651 74.8213 126.651 72.4108V70.3448H126.238C125.412 71.5156 124.328 72.4108 122.986 73.0307C121.645 73.6505 120.113 73.9604 118.393 73.9604C116.225 73.9604 114.204 73.4008 112.329 72.2817C110.454 71.1626 108.948 69.5786 107.813 67.5298C106.678 65.4809 106.11 63.0964 106.11 60.376C106.11 57.6557 106.678 55.2711 107.813 53.2223C108.948 51.1735 110.454 49.5895 112.329 48.4704C114.204 47.3512 116.225 46.7917 118.393 46.7917C120.113 46.7917 121.645 47.1016 122.986 47.7214C124.328 48.3412 125.412 49.2365 126.238 50.4073H126.651V47.6181H133.154V72.1526C133.154 74.9762 132.603 77.421 131.502 79.4871C130.401 81.5532 128.836 83.1458 126.806 84.2649ZM119.787 67.815C117.86 67.815 116.226 67.1608 114.884 65.8523C113.542 64.5437 112.871 62.7187 112.871 60.3772C112.871 58.0357 113.542 56.2106 114.884 54.9021C116.226 53.5936 117.86 52.9394 119.787 52.9394C121.713 52.9394 123.339 53.585 124.664 54.8763C125.988 56.1676 126.651 58.0012 126.651 60.3772C126.651 62.6843 125.98 64.5007 124.638 65.8264C123.296 67.1521 121.679 67.815 119.787 67.815ZM159.577 72.9532C157.444 74.1756 155.036 74.7868 152.352 74.7868C149.634 74.7868 147.208 74.1756 145.075 72.9532C142.942 71.7308 141.282 70.0607 140.095 67.943C138.908 65.8253 138.314 63.4407 138.314 60.7893C138.314 58.1722 138.908 55.7963 140.095 53.6613C141.282 51.5264 142.942 49.8477 145.075 48.6253C147.208 47.4029 149.634 46.7917 152.352 46.7917C155.036 46.7917 157.444 47.4029 159.577 48.6253C161.711 49.8477 163.371 51.5264 164.558 53.6613C165.745 55.7963 166.338 58.1722 166.338 60.7893C166.338 63.4407 165.745 65.8253 164.558 67.943C163.371 70.0607 161.711 71.7308 159.577 72.9532ZM152.353 68.5374C151.046 68.5374 149.841 68.2275 148.74 67.6076C147.639 66.9878 146.753 66.0839 146.083 64.8959C145.412 63.708 145.076 62.3392 145.076 60.7896C145.076 59.2401 145.412 57.8799 146.083 56.7092C146.753 55.5384 147.639 54.6431 148.74 54.0233C149.841 53.4035 151.046 53.0936 152.353 53.0936C153.661 53.0936 154.865 53.4035 155.966 54.0233C157.067 54.6431 157.944 55.5384 158.598 56.7092C159.252 57.8799 159.579 59.2401 159.579 60.7896C159.579 62.3736 159.252 63.751 158.598 64.9218C157.944 66.0925 157.067 66.9878 155.966 67.6076C154.865 68.2275 153.661 68.5374 152.353 68.5374ZM178.26 60.531V73.9604H171.5V47.6181H177.848V50.9238H178.26C179.052 49.6497 180.17 48.6425 181.615 47.9022C183.06 47.1619 184.626 46.7917 186.312 46.7917C189.477 46.7917 191.885 47.7558 193.537 49.6842C195.189 51.6125 196.014 54.2467 196.014 57.5869V73.9604H189.253V58.4133C189.253 56.726 188.823 55.4175 187.963 54.4878C187.103 53.558 185.899 53.0932 184.35 53.0932C182.527 53.0932 181.056 53.7991 179.938 55.2109C178.82 56.6227 178.26 58.3961 178.26 60.531Z" fill="#1A1B23"/>
<path fill-rule="evenodd" clip-rule="evenodd" d="M220.995 44.7291C222.2 44.7291 223.223 44.2987 224.066 43.4378C224.909 42.577 225.331 41.5439 225.331 40.3387C225.331 39.1335 224.909 38.1091 224.066 37.2655C223.223 36.4218 222.2 36 220.995 36C219.791 36 218.759 36.4218 217.899 37.2655C217.039 38.1091 216.609 39.1335 216.609 40.3387C216.609 41.5439 217.039 42.577 217.899 43.4378C218.759 44.2987 219.791 44.7291 220.995 44.7291ZM206.492 74.2735C207.731 74.2735 208.789 73.8345 209.666 72.9564C210.544 72.0783 210.982 71.0195 210.982 69.7798C210.982 68.5402 210.544 67.4899 209.666 66.6291C208.789 65.7682 207.731 65.3378 206.492 65.3378C205.254 65.3378 204.196 65.7682 203.318 66.6291C202.441 67.4899 202.002 68.5402 202.002 69.7798C202.002 71.0195 202.441 72.0783 203.318 72.9564C204.196 73.8345 205.254 74.2735 206.492 74.2735ZM224.351 47.6211V73.9634H217.59V47.6211H224.351ZM244.014 74.7896C246.697 74.7896 249.106 74.1784 251.239 72.956C253.372 71.7336 255.032 70.0635 256.219 67.9458C257.406 65.8281 258 63.4435 258 60.7921C258 58.1751 257.406 55.7991 256.219 53.6642C255.032 51.5292 253.372 49.8505 251.239 48.6281C249.106 47.4057 246.697 46.7945 244.014 46.7945C241.296 46.7945 238.87 47.4057 236.737 48.6281C234.603 49.8505 232.943 51.5292 231.756 53.6642C230.569 55.7991 229.976 58.1751 229.976 60.7921C229.976 63.4435 230.569 65.8281 231.756 67.9458C232.943 70.0635 234.603 71.7336 236.737 72.956C238.87 74.1784 241.296 74.7896 244.014 74.7896ZM240.401 67.6105C241.502 68.2303 242.706 68.5402 244.014 68.5402C245.321 68.5402 246.525 68.2303 247.626 67.6105C248.727 66.9906 249.605 66.0953 250.258 64.9246C250.912 63.7538 251.239 62.3764 251.239 60.7924C251.239 59.2429 250.912 57.8827 250.258 56.712C249.605 55.5412 248.727 54.6459 247.626 54.0261C246.525 53.4063 245.321 53.0964 244.014 53.0964C242.706 53.0964 241.502 53.4063 240.401 54.0261C239.3 54.6459 238.414 55.5412 237.743 56.712C237.072 57.8827 236.737 59.2429 236.737 60.7924C236.737 62.342 237.072 63.7108 237.743 64.8987C238.414 66.0867 239.3 66.9906 240.401 67.6105Z" fill="#565A6A"/>
</svg>
